<mxfile host="app.diagrams.net" modified="2023-04-16T20:41:00.900Z" agent="Mozilla/5.0 (Windows NT 10.0; Win64; x64) AppleWebKit/537.36 (KHTML, like Gecko) Chrome/112.0.0.0 Safari/537.36" etag="rgFA-f6iMb2dP8u7Cd3J" version="21.1.8" type="device">
  <diagram name="Page-1" id="pQZI-4XHFqmXTCKc_6Nn">
    <mxGraphModel dx="1195" dy="640" grid="1" gridSize="10" guides="1" tooltips="1" connect="1" arrows="1" fold="1" page="1" pageScale="1" pageWidth="850" pageHeight="1100" math="0" shadow="0">
      <root>
        <mxCell id="0" />
        <mxCell id="1" parent="0" />
        <mxCell id="r9VaE8LkY0G1EnwSw6R1-5" value="Config" style="swimlane;fontStyle=1;align=center;verticalAlign=top;childLayout=stackLayout;horizontal=1;startSize=26;horizontalStack=0;resizeParent=1;resizeParentMax=0;resizeLast=0;collapsible=1;marginBottom=0;whiteSpace=wrap;html=1;" vertex="1" parent="1">
          <mxGeometry x="100" y="228" width="190" height="60" as="geometry" />
        </mxCell>
        <mxCell id="r9VaE8LkY0G1EnwSw6R1-6" value="- data:vector" style="text;strokeColor=none;fillColor=none;align=left;verticalAlign=top;spacingLeft=4;spacingRight=4;overflow=hidden;rotatable=0;points=[[0,0.5],[1,0.5]];portConstraint=eastwest;whiteSpace=wrap;html=1;" vertex="1" parent="r9VaE8LkY0G1EnwSw6R1-5">
          <mxGeometry y="26" width="190" height="26" as="geometry" />
        </mxCell>
        <mxCell id="r9VaE8LkY0G1EnwSw6R1-7" value="" style="line;strokeWidth=1;fillColor=none;align=left;verticalAlign=middle;spacingTop=-1;spacingLeft=3;spacingRight=3;rotatable=0;labelPosition=right;points=[];portConstraint=eastwest;strokeColor=inherit;" vertex="1" parent="r9VaE8LkY0G1EnwSw6R1-5">
          <mxGeometry y="52" width="190" height="8" as="geometry" />
        </mxCell>
        <mxCell id="r9VaE8LkY0G1EnwSw6R1-15" value="ConfigGenerator" style="swimlane;fontStyle=1;align=center;verticalAlign=top;childLayout=stackLayout;horizontal=1;startSize=26;horizontalStack=0;resizeParent=1;resizeParentMax=0;resizeLast=0;collapsible=1;marginBottom=0;whiteSpace=wrap;html=1;" vertex="1" parent="1">
          <mxGeometry x="520" y="228" width="260" height="60" as="geometry" />
        </mxCell>
        <mxCell id="r9VaE8LkY0G1EnwSw6R1-19" style="edgeStyle=orthogonalEdgeStyle;rounded=0;orthogonalLoop=1;jettySize=auto;html=1;exitX=0;exitY=0.5;exitDx=0;exitDy=0;startArrow=none;startFill=0;endSize=13;startSize=16;entryX=1;entryY=0.5;entryDx=0;entryDy=0;" edge="1" parent="r9VaE8LkY0G1EnwSw6R1-15" target="r9VaE8LkY0G1EnwSw6R1-6">
          <mxGeometry relative="1" as="geometry">
            <mxPoint x="-280" y="39" as="targetPoint" />
            <mxPoint y="39" as="sourcePoint" />
          </mxGeometry>
        </mxCell>
        <mxCell id="r9VaE8LkY0G1EnwSw6R1-17" value="" style="line;strokeWidth=1;fillColor=none;align=left;verticalAlign=middle;spacingTop=-1;spacingLeft=3;spacingRight=3;rotatable=0;labelPosition=right;points=[];portConstraint=eastwest;strokeColor=inherit;" vertex="1" parent="r9VaE8LkY0G1EnwSw6R1-15">
          <mxGeometry y="26" width="260" height="8" as="geometry" />
        </mxCell>
        <mxCell id="r9VaE8LkY0G1EnwSw6R1-18" value="+ generateInnerFile (config): vector&amp;lt;string&amp;gt;" style="text;strokeColor=none;fillColor=none;align=left;verticalAlign=top;spacingLeft=4;spacingRight=4;overflow=hidden;rotatable=0;points=[[0,0.5],[1,0.5]];portConstraint=eastwest;whiteSpace=wrap;html=1;" vertex="1" parent="r9VaE8LkY0G1EnwSw6R1-15">
          <mxGeometry y="34" width="260" height="26" as="geometry" />
        </mxCell>
        <mxCell id="r9VaE8LkY0G1EnwSw6R1-26" style="edgeStyle=orthogonalEdgeStyle;rounded=0;orthogonalLoop=1;jettySize=auto;html=1;exitX=0;exitY=0.392;exitDx=0;exitDy=0;startArrow=none;startFill=0;endSize=13;startSize=16;exitPerimeter=0;" edge="1" parent="1" source="r9VaE8LkY0G1EnwSw6R1-45">
          <mxGeometry relative="1" as="geometry">
            <mxPoint x="200" y="290" as="targetPoint" />
            <mxPoint x="280" y="429.58000000000004" as="sourcePoint" />
          </mxGeometry>
        </mxCell>
        <mxCell id="r9VaE8LkY0G1EnwSw6R1-46" style="edgeStyle=orthogonalEdgeStyle;rounded=0;orthogonalLoop=1;jettySize=auto;html=1;entryX=0.5;entryY=1;entryDx=0;entryDy=0;dashed=1;dashPattern=12 12;" edge="1" parent="1" source="r9VaE8LkY0G1EnwSw6R1-31" target="r9VaE8LkY0G1EnwSw6R1-45">
          <mxGeometry relative="1" as="geometry" />
        </mxCell>
        <mxCell id="r9VaE8LkY0G1EnwSw6R1-31" value="CodeGeneratorXML" style="swimlane;fontStyle=1;align=center;verticalAlign=top;childLayout=stackLayout;horizontal=1;startSize=26;horizontalStack=0;resizeParent=1;resizeParentMax=0;resizeLast=0;collapsible=1;marginBottom=0;whiteSpace=wrap;html=1;" vertex="1" parent="1">
          <mxGeometry x="300" y="560" width="270" height="60" as="geometry" />
        </mxCell>
        <mxCell id="r9VaE8LkY0G1EnwSw6R1-32" value="" style="line;strokeWidth=1;fillColor=none;align=left;verticalAlign=middle;spacingTop=-1;spacingLeft=3;spacingRight=3;rotatable=0;labelPosition=right;points=[];portConstraint=eastwest;strokeColor=inherit;" vertex="1" parent="r9VaE8LkY0G1EnwSw6R1-31">
          <mxGeometry y="26" width="270" height="8" as="geometry" />
        </mxCell>
        <mxCell id="r9VaE8LkY0G1EnwSw6R1-33" value="+ generateCode(config): vector&amp;lt;String&amp;gt;&lt;br&gt;&amp;gt;" style="text;strokeColor=none;fillColor=none;align=left;verticalAlign=top;spacingLeft=4;spacingRight=4;overflow=hidden;rotatable=0;points=[[0,0.5],[1,0.5]];portConstraint=eastwest;whiteSpace=wrap;html=1;" vertex="1" parent="r9VaE8LkY0G1EnwSw6R1-31">
          <mxGeometry y="34" width="270" height="26" as="geometry" />
        </mxCell>
        <mxCell id="r9VaE8LkY0G1EnwSw6R1-41" style="edgeStyle=orthogonalEdgeStyle;rounded=0;orthogonalLoop=1;jettySize=auto;html=1;exitX=0.5;exitY=0;exitDx=0;exitDy=0;dashed=1;dashPattern=12 12;" edge="1" parent="1" source="r9VaE8LkY0G1EnwSw6R1-34">
          <mxGeometry relative="1" as="geometry">
            <mxPoint x="392" y="450" as="targetPoint" />
            <Array as="points">
              <mxPoint x="145" y="500" />
              <mxPoint x="392" y="500" />
            </Array>
          </mxGeometry>
        </mxCell>
        <mxCell id="r9VaE8LkY0G1EnwSw6R1-34" value="CodeGeneratorJSON" style="swimlane;fontStyle=1;align=center;verticalAlign=top;childLayout=stackLayout;horizontal=1;startSize=26;horizontalStack=0;resizeParent=1;resizeParentMax=0;resizeLast=0;collapsible=1;marginBottom=0;whiteSpace=wrap;html=1;" vertex="1" parent="1">
          <mxGeometry x="10" y="560" width="270" height="60" as="geometry" />
        </mxCell>
        <mxCell id="r9VaE8LkY0G1EnwSw6R1-35" value="" style="line;strokeWidth=1;fillColor=none;align=left;verticalAlign=middle;spacingTop=-1;spacingLeft=3;spacingRight=3;rotatable=0;labelPosition=right;points=[];portConstraint=eastwest;strokeColor=inherit;" vertex="1" parent="r9VaE8LkY0G1EnwSw6R1-34">
          <mxGeometry y="26" width="270" height="8" as="geometry" />
        </mxCell>
        <mxCell id="r9VaE8LkY0G1EnwSw6R1-36" value="+ generateCode(config): vector&amp;lt;String&amp;gt;&lt;br&gt;&amp;gt;" style="text;strokeColor=none;fillColor=none;align=left;verticalAlign=top;spacingLeft=4;spacingRight=4;overflow=hidden;rotatable=0;points=[[0,0.5],[1,0.5]];portConstraint=eastwest;whiteSpace=wrap;html=1;" vertex="1" parent="r9VaE8LkY0G1EnwSw6R1-34">
          <mxGeometry y="34" width="270" height="26" as="geometry" />
        </mxCell>
        <mxCell id="r9VaE8LkY0G1EnwSw6R1-47" style="edgeStyle=orthogonalEdgeStyle;rounded=0;orthogonalLoop=1;jettySize=auto;html=1;exitX=0.5;exitY=0;exitDx=0;exitDy=0;entryX=0.848;entryY=1;entryDx=0;entryDy=0;entryPerimeter=0;dashed=1;dashPattern=8 8;" edge="1" parent="1" source="r9VaE8LkY0G1EnwSw6R1-38" target="r9VaE8LkY0G1EnwSw6R1-45">
          <mxGeometry relative="1" as="geometry">
            <Array as="points">
              <mxPoint x="735" y="500" />
              <mxPoint x="473" y="500" />
            </Array>
          </mxGeometry>
        </mxCell>
        <mxCell id="r9VaE8LkY0G1EnwSw6R1-38" value="CodeGeneratorINI" style="swimlane;fontStyle=1;align=center;verticalAlign=top;childLayout=stackLayout;horizontal=1;startSize=26;horizontalStack=0;resizeParent=1;resizeParentMax=0;resizeLast=0;collapsible=1;marginBottom=0;whiteSpace=wrap;html=1;" vertex="1" parent="1">
          <mxGeometry x="600" y="560" width="270" height="60" as="geometry" />
        </mxCell>
        <mxCell id="r9VaE8LkY0G1EnwSw6R1-39" value="" style="line;strokeWidth=1;fillColor=none;align=left;verticalAlign=middle;spacingTop=-1;spacingLeft=3;spacingRight=3;rotatable=0;labelPosition=right;points=[];portConstraint=eastwest;strokeColor=inherit;" vertex="1" parent="r9VaE8LkY0G1EnwSw6R1-38">
          <mxGeometry y="26" width="270" height="8" as="geometry" />
        </mxCell>
        <mxCell id="r9VaE8LkY0G1EnwSw6R1-40" value="+ generateCode(config): vector&amp;lt;String&amp;gt;&lt;br&gt;&amp;gt;" style="text;strokeColor=none;fillColor=none;align=left;verticalAlign=top;spacingLeft=4;spacingRight=4;overflow=hidden;rotatable=0;points=[[0,0.5],[1,0.5]];portConstraint=eastwest;whiteSpace=wrap;html=1;" vertex="1" parent="r9VaE8LkY0G1EnwSw6R1-38">
          <mxGeometry y="34" width="270" height="26" as="geometry" />
        </mxCell>
        <mxCell id="r9VaE8LkY0G1EnwSw6R1-45" value="«interface»&lt;br&gt;&lt;b&gt;CodeGenerator&lt;/b&gt;" style="html=1;whiteSpace=wrap;" vertex="1" parent="1">
          <mxGeometry x="380" y="398" width="110" height="50" as="geometry" />
        </mxCell>
        <mxCell id="r9VaE8LkY0G1EnwSw6R1-53" style="edgeStyle=orthogonalEdgeStyle;rounded=0;orthogonalLoop=1;jettySize=auto;html=1;" edge="1" parent="1" source="r9VaE8LkY0G1EnwSw6R1-48">
          <mxGeometry relative="1" as="geometry">
            <mxPoint x="690" y="290" as="targetPoint" />
          </mxGeometry>
        </mxCell>
        <mxCell id="r9VaE8LkY0G1EnwSw6R1-48" value="Controller" style="swimlane;fontStyle=1;align=center;verticalAlign=top;childLayout=stackLayout;horizontal=1;startSize=26;horizontalStack=0;resizeParent=1;resizeParentMax=0;resizeLast=0;collapsible=1;marginBottom=0;whiteSpace=wrap;html=1;" vertex="1" parent="1">
          <mxGeometry x="600" y="340" width="180" height="138" as="geometry" />
        </mxCell>
        <mxCell id="r9VaE8LkY0G1EnwSw6R1-50" value="" style="line;strokeWidth=1;fillColor=none;align=left;verticalAlign=middle;spacingTop=-1;spacingLeft=3;spacingRight=3;rotatable=0;labelPosition=right;points=[];portConstraint=eastwest;strokeColor=inherit;" vertex="1" parent="r9VaE8LkY0G1EnwSw6R1-48">
          <mxGeometry y="26" width="180" height="8" as="geometry" />
        </mxCell>
        <mxCell id="r9VaE8LkY0G1EnwSw6R1-51" value="+ getConfigFromView():Config&lt;br&gt;&amp;nbsp;" style="text;strokeColor=none;fillColor=none;align=left;verticalAlign=top;spacingLeft=4;spacingRight=4;overflow=hidden;rotatable=0;points=[[0,0.5],[1,0.5]];portConstraint=eastwest;whiteSpace=wrap;html=1;" vertex="1" parent="r9VaE8LkY0G1EnwSw6R1-48">
          <mxGeometry y="34" width="180" height="26" as="geometry" />
        </mxCell>
        <mxCell id="r9VaE8LkY0G1EnwSw6R1-57" value="+ writeCode(Enum format):&lt;br&gt;&amp;nbsp;" style="text;strokeColor=none;fillColor=none;align=left;verticalAlign=top;spacingLeft=4;spacingRight=4;overflow=hidden;rotatable=0;points=[[0,0.5],[1,0.5]];portConstraint=eastwest;whiteSpace=wrap;html=1;" vertex="1" parent="r9VaE8LkY0G1EnwSw6R1-48">
          <mxGeometry y="60" width="180" height="26" as="geometry" />
        </mxCell>
        <mxCell id="r9VaE8LkY0G1EnwSw6R1-58" value="+ loadInnerFile(): string&lt;br&gt;&lt;br&gt;&amp;nbsp;" style="text;strokeColor=none;fillColor=none;align=left;verticalAlign=top;spacingLeft=4;spacingRight=4;overflow=hidden;rotatable=0;points=[[0,0.5],[1,0.5]];portConstraint=eastwest;whiteSpace=wrap;html=1;" vertex="1" parent="r9VaE8LkY0G1EnwSw6R1-48">
          <mxGeometry y="86" width="180" height="26" as="geometry" />
        </mxCell>
        <mxCell id="r9VaE8LkY0G1EnwSw6R1-59" value="+ writeInnerFile(string): void&lt;br&gt;&lt;br&gt;&amp;nbsp;" style="text;strokeColor=none;fillColor=none;align=left;verticalAlign=top;spacingLeft=4;spacingRight=4;overflow=hidden;rotatable=0;points=[[0,0.5],[1,0.5]];portConstraint=eastwest;whiteSpace=wrap;html=1;" vertex="1" parent="r9VaE8LkY0G1EnwSw6R1-48">
          <mxGeometry y="112" width="180" height="26" as="geometry" />
        </mxCell>
        <mxCell id="r9VaE8LkY0G1EnwSw6R1-52" style="edgeStyle=orthogonalEdgeStyle;rounded=0;orthogonalLoop=1;jettySize=auto;html=1;" edge="1" parent="1">
          <mxGeometry relative="1" as="geometry">
            <mxPoint x="600" y="419" as="sourcePoint" />
            <mxPoint x="490" y="419" as="targetPoint" />
          </mxGeometry>
        </mxCell>
        <mxCell id="r9VaE8LkY0G1EnwSw6R1-60" value="FileReader" style="swimlane;fontStyle=0;childLayout=stackLayout;horizontal=1;startSize=26;fillColor=none;horizontalStack=0;resizeParent=1;resizeParentMax=0;resizeLast=0;collapsible=1;marginBottom=0;whiteSpace=wrap;html=1;" vertex="1" parent="1">
          <mxGeometry x="840" y="232" width="160" height="52" as="geometry" />
        </mxCell>
        <mxCell id="r9VaE8LkY0G1EnwSw6R1-61" value="+ readFile(string dir):string" style="text;strokeColor=none;fillColor=none;align=left;verticalAlign=top;spacingLeft=4;spacingRight=4;overflow=hidden;rotatable=0;points=[[0,0.5],[1,0.5]];portConstraint=eastwest;whiteSpace=wrap;html=1;" vertex="1" parent="r9VaE8LkY0G1EnwSw6R1-60">
          <mxGeometry y="26" width="160" height="26" as="geometry" />
        </mxCell>
        <mxCell id="r9VaE8LkY0G1EnwSw6R1-68" value="FileWriter" style="swimlane;fontStyle=0;childLayout=stackLayout;horizontal=1;startSize=26;fillColor=none;horizontalStack=0;resizeParent=1;resizeParentMax=0;resizeLast=0;collapsible=1;marginBottom=0;whiteSpace=wrap;html=1;" vertex="1" parent="1">
          <mxGeometry x="840" y="400" width="190" height="52" as="geometry" />
        </mxCell>
        <mxCell id="r9VaE8LkY0G1EnwSw6R1-69" value="+ writeToFile(string line, file):bool" style="text;strokeColor=none;fillColor=none;align=left;verticalAlign=top;spacingLeft=4;spacingRight=4;overflow=hidden;rotatable=0;points=[[0,0.5],[1,0.5]];portConstraint=eastwest;whiteSpace=wrap;html=1;" vertex="1" parent="r9VaE8LkY0G1EnwSw6R1-68">
          <mxGeometry y="26" width="190" height="26" as="geometry" />
        </mxCell>
        <mxCell id="r9VaE8LkY0G1EnwSw6R1-72" style="edgeStyle=orthogonalEdgeStyle;rounded=0;orthogonalLoop=1;jettySize=auto;html=1;entryX=0;entryY=0.385;entryDx=0;entryDy=0;entryPerimeter=0;" edge="1" parent="1" source="r9VaE8LkY0G1EnwSw6R1-57" target="r9VaE8LkY0G1EnwSw6R1-60">
          <mxGeometry relative="1" as="geometry" />
        </mxCell>
        <mxCell id="r9VaE8LkY0G1EnwSw6R1-74" style="edgeStyle=orthogonalEdgeStyle;rounded=0;orthogonalLoop=1;jettySize=auto;html=1;entryX=0;entryY=0.5;entryDx=0;entryDy=0;" edge="1" parent="1" source="r9VaE8LkY0G1EnwSw6R1-58" target="r9VaE8LkY0G1EnwSw6R1-69">
          <mxGeometry relative="1" as="geometry" />
        </mxCell>
      </root>
    </mxGraphModel>
  </diagram>
</mxfile>
